<svg xmlns="http://www.w3.org/2000/svg" viewBox="0 0 38.87 16.91"><defs><style>.cls-1{fill:#fff;}</style></defs><title>tusent.io-logo</title><g id="Lager_2" data-name="Lager 2"><g id="Lager_1-2" data-name="Lager 1"><path class="cls-1" d="M4.69,16.58H1.37V9.47A1.37,1.37,0,0,0,0,8.1V4.77a4.7,4.7,0,0,1,4.69,4.7Z"/><path class="cls-1" d="M12.46,7.89a2.85,2.85,0,1,1-2.85,2.85,2.85,2.85,0,0,1,2.85-2.85Zm0-3.33a6.18,6.18,0,1,0,6.18,6.18,6.17,6.17,0,0,0-6.18-6.18Z"/><path class="cls-1" d="M24.93,16.58H21.6V9.47A1.36,1.36,0,0,0,20.24,8.1V4.77a4.71,4.71,0,0,1,4.69,4.7Z"/><path class="cls-1" d="M32.7,7.89a2.85,2.85,0,1,1-2.85,2.85A2.85,2.85,0,0,1,32.7,7.89Zm0-3.33a6.18,6.18,0,1,0,6.17,6.18A6.18,6.18,0,0,0,32.7,4.56Z"/><circle class="cls-1" cx="23.27" cy="2.02" r="2.02"/></g></g></svg>